<svg width="40" height="41" viewBox="0 0 40 41" fill="none" xmlns="http://www.w3.org/2000/svg">
<circle cx="20" cy="20.1553" r="20" fill="#0E0E0D"/>
<path fill-rule="evenodd" clip-rule="evenodd" d="M23.5352 17.9102L32.2182 12.7004L31.2245 20.1454L32.2182 27.5905L23.532 22.3788C22.7717 23.6439 21.3858 24.4903 19.8023 24.4903C17.4008 24.4903 15.4539 22.5434 15.4539 20.1419C15.4539 17.7403 17.4008 15.7935 19.8023 15.7935C21.388 15.7935 22.7755 16.6422 23.5352 17.9102Z" fill="white"/>
<path fill-rule="evenodd" clip-rule="evenodd" d="M9.35999 10.3441C12.4754 7.93973 16.2925 6.49619 20.5746 6.49619C24.1081 6.49619 27.5524 7.47916 30.6366 9.17389C27.9861 6.74062 24.4513 5.25531 20.5696 5.25531C16.0994 5.25531 12.0893 7.22515 9.35999 10.3441Z" fill="white"/>
<path fill-rule="evenodd" clip-rule="evenodd" d="M30.6378 31.1146C27.5514 32.8116 24.1044 33.796 20.5685 33.796C16.2921 33.796 12.4802 32.3562 9.36792 29.9573C12.0971 33.0702 16.1032 35.0356 20.5683 35.0356C24.4512 35.0356 27.987 33.5493 30.6378 31.1146Z" fill="white"/>
</svg>
