<svg width="41" height="40" viewBox="0 0 41 40" fill="none" xmlns="http://www.w3.org/2000/svg">
<circle cx="20.5" cy="20" r="20" fill="#0E0E0D"/>
<path fill-rule="evenodd" clip-rule="evenodd" d="M24.0351 17.7547L32.7181 12.5449L31.7245 19.99L32.7181 27.435L24.032 22.2233C23.2716 23.4884 21.8858 24.3348 20.3023 24.3348C17.9007 24.3348 15.9539 22.388 15.9539 19.9864C15.9539 17.5848 17.9007 15.638 20.3023 15.638C21.888 15.638 23.2754 16.4867 24.0351 17.7547Z" fill="white"/>
<path fill-rule="evenodd" clip-rule="evenodd" d="M9.85999 10.1887C12.9754 7.78427 16.7925 6.34073 21.0746 6.34073C24.6081 6.34073 28.0524 7.32371 31.1366 9.01843C28.4861 6.58516 24.9513 5.09985 21.0696 5.09985C16.5994 5.09985 12.5893 7.06969 9.85999 10.1887Z" fill="white"/>
<path fill-rule="evenodd" clip-rule="evenodd" d="M31.1378 30.9593C28.0514 32.6563 24.6044 33.6407 21.0684 33.6407C16.7921 33.6407 12.9802 32.2008 9.86789 29.802C12.597 32.9149 16.6031 34.8802 21.0682 34.8802C24.9512 34.8802 28.487 33.394 31.1378 30.9593Z" fill="white"/>
</svg>
