<svg width="40" height="40" viewBox="0 0 40 40" fill="none" xmlns="http://www.w3.org/2000/svg">
<circle cx="20" cy="20" r="20" fill="#005454"/>
<path fill-rule="evenodd" clip-rule="evenodd" d="M23.5351 17.7547L32.2181 12.5449L31.2245 19.99L32.2181 27.435L23.532 22.2233C22.7716 23.4884 21.3858 24.3348 19.8023 24.3348C17.4007 24.3348 15.4539 22.388 15.4539 19.9864C15.4539 17.5848 17.4007 15.638 19.8023 15.638C21.388 15.638 22.7754 16.4867 23.5351 17.7547Z" fill="white"/>
<path fill-rule="evenodd" clip-rule="evenodd" d="M9.35999 10.1887C12.4754 7.78427 16.2925 6.34073 20.5746 6.34073C24.1081 6.34073 27.5524 7.32371 30.6366 9.01843C27.9861 6.58516 24.4513 5.09985 20.5696 5.09985C16.0994 5.09985 12.0893 7.06969 9.35999 10.1887Z" fill="white"/>
<path fill-rule="evenodd" clip-rule="evenodd" d="M30.6378 30.9593C27.5514 32.6563 24.1044 33.6407 20.5684 33.6407C16.2921 33.6407 12.4802 32.2008 9.36789 29.802C12.097 32.9149 16.1031 34.8802 20.5682 34.8802C24.4512 34.8802 27.987 33.394 30.6378 30.9593Z" fill="white"/>
</svg>
