<svg width="41" height="42" viewBox="0 0 41 42" fill="none" xmlns="http://www.w3.org/2000/svg">
<circle cx="20.4997" cy="21" r="20.4978" fill="white"/>
<mask id="path-2-inside-1_170_22" fill="white">
<path fill-rule="evenodd" clip-rule="evenodd" d="M30.2086 21.3798L40.9974 15.9854V31.3587L30.2086 25.9642C29.3672 27.6436 27.6303 28.7964 25.6241 28.7964C22.794 28.7964 20.4997 26.5021 20.4997 23.672C20.4997 20.8418 22.794 18.5475 25.6241 18.5475C27.6303 18.5475 29.3673 19.7004 30.2086 21.3798Z"/>
</mask>
<path d="M40.9974 15.9854H42.5019V13.5511L40.3246 14.6398L40.9974 15.9854ZM30.2086 21.3798L28.8635 22.0536L29.5368 23.3977L30.8814 22.7254L30.2086 21.3798ZM40.9974 31.3587L40.3246 32.7043L42.5019 33.7929V31.3587H40.9974ZM30.2086 25.9642L30.8814 24.6186L29.5368 23.9464L28.8635 25.2904L30.2086 25.9642ZM40.3246 14.6398L29.5358 20.0342L30.8814 22.7254L41.6702 17.3309L40.3246 14.6398ZM42.5019 31.3587V15.9854H39.493V31.3587H42.5019ZM29.5358 27.3098L40.3246 32.7043L41.6702 30.0131L30.8814 24.6186L29.5358 27.3098ZM28.8635 25.2904C28.2673 26.4804 27.0392 27.292 25.6241 27.292V30.3009C28.2215 30.3009 30.4672 28.8068 31.5536 26.6381L28.8635 25.2904ZM25.6241 27.292C23.6249 27.292 22.0041 25.6713 22.0041 23.672H18.9953C18.9953 27.333 21.9631 30.3009 25.6241 30.3009V27.292ZM22.0041 23.672C22.0041 21.6727 23.6249 20.052 25.6241 20.052V17.0431C21.9631 17.0431 18.9953 20.011 18.9953 23.672H22.0041ZM25.6241 20.052C27.0392 20.052 28.2673 20.8636 28.8635 22.0536L31.5537 20.7059C30.4672 18.5372 28.2215 17.0431 25.6241 17.0431V20.052Z" fill="black" mask="url(#path-2-inside-1_170_22)"/>
<mask id="path-4-inside-2_170_22" fill="white">
<path fill-rule="evenodd" clip-rule="evenodd" d="M30.2085 16.0202L40.9974 10.6257V25.9991L30.2086 20.6046C29.3673 22.2841 27.6304 23.437 25.6241 23.437C22.794 23.437 20.4997 21.1427 20.4997 18.3125C20.4997 15.4824 22.794 13.1881 25.6241 13.1881C27.6303 13.1881 29.3672 14.3409 30.2085 16.0202Z"/>
</mask>
<path d="M40.9974 10.6257H42.5019V8.19153L40.3246 9.28014L40.9974 10.6257ZM30.2085 16.0202L28.8635 16.6941L29.5368 18.038L30.8813 17.3658L30.2085 16.0202ZM40.9974 25.9991L40.3246 27.3446L42.5019 28.4333V25.9991H40.9974ZM30.2086 20.6046L30.8814 19.259L29.5368 18.5868L28.8635 19.9308L30.2086 20.6046ZM40.3246 9.28014L29.5357 14.6746L30.8813 17.3658L41.6702 11.9713L40.3246 9.28014ZM42.5019 25.9991V10.6257H39.493V25.9991H42.5019ZM29.5358 21.9502L40.3246 27.3446L41.6702 24.6535L30.8814 19.259L29.5358 21.9502ZM28.8635 19.9308C28.2674 21.1209 27.0392 21.9325 25.6241 21.9325V24.9414C28.2215 24.9414 30.4673 23.4472 31.5537 21.2785L28.8635 19.9308ZM25.6241 21.9325C23.6249 21.9325 22.0041 20.3118 22.0041 18.3125H18.9953C18.9953 21.9735 21.9631 24.9414 25.6241 24.9414V21.9325ZM22.0041 18.3125C22.0041 16.3132 23.6249 14.6925 25.6241 14.6925V11.6837C21.9631 11.6837 18.9953 14.6515 18.9953 18.3125H22.0041ZM25.6241 14.6925C27.0391 14.6925 28.2673 15.5041 28.8635 16.6941L31.5536 15.3463C30.4671 13.1777 28.2214 11.6837 25.6241 11.6837V14.6925Z" fill="black" mask="url(#path-4-inside-2_170_22)"/>
<path fill-rule="evenodd" clip-rule="evenodd" d="M26.6128 17.9436L40.9981 10.751V31.2487L26.6127 24.0561C25.491 26.2952 23.1751 27.8324 20.5001 27.8324C16.7266 27.8324 13.6675 24.7733 13.6675 20.9998C13.6675 17.2262 16.7266 14.1672 20.5001 14.1672C23.1751 14.1672 25.491 15.7044 26.6128 17.9436Z" fill="black"/>
</svg>
